<?xml version="1.0" encoding="UTF-8"?>
<!DOCTYPE svg PUBLIC "-//W3C//DTD SVG 1.1//EN" "http://www.w3.org/Graphics/SVG/1.1/DTD/svg11.dtd">
<!-- Creator: CorelDRAW 2019 (64-Bit) -->
<svg xmlns="http://www.w3.org/2000/svg" xml:space="preserve" width="475mm" height="325mm" version="1.1" style="shape-rendering:geometricPrecision; text-rendering:geometricPrecision; image-rendering:optimizeQuality; fill-rule:evenodd; clip-rule:evenodd"
viewBox="0 0 47500 32500"
 xmlns:xlink="http://www.w3.org/1999/xlink">
 <defs>
  <style type="text/css">
   <![CDATA[
    .fil0 {fill:#373435}
   ]]>
  </style>
 </defs>
 <g id="Capa_x0020_1">
  <metadata id="CorelCorpID_0Corel-Layer"/>
  <path class="fil0" d="M14432.8 7685.22l-1186.17 -4.06 0 1822.53 1261.01 -1c1392.74,-1.08 1076.29,-1908 -74.84,-1817.47zm-2325.31 -805.4c0,-117.85 54.92,-180.62 172.88,-180.62l2403.83 0c267.12,0 518.49,47.1 746.33,149.27 227.76,102.14 434.08,233.66 604.88,400.56 174.83,170.88 303.09,378.51 400.67,605.01 98.77,229.26 149.3,479.18 149.3,738.45 0,180.63 -19.96,354.57 -70.65,518.38 -51.46,166.18 -125.76,314.29 -212.2,455.72 -86.41,141.39 -192.49,271.13 -314.21,384.96 -121.96,114.09 -259.24,212.08 -408.51,290.6l1021.27 2011.12c14.71,28.9 15.73,55.03 31.46,78.64 7.85,31.33 15.62,54.93 15.62,86.36 0,78.54 -47.08,117.85 -133.43,117.85l-919.19 0c-94.24,0 -140.54,-53.87 -188.62,-149.28l-950.51 -1885.45c-47.19,0 -86.55,-4.23 -141.42,0 -47.58,3.67 -109.97,7.88 -196.36,7.88l-872 0 0 1853.97c0,117.84 -62.91,172.88 -180.76,172.88l-785.5 0c-55.04,0 -96.19,-13.5 -125.7,-39.31 -33.41,-29.23 -47.18,-70.66 -47.18,-133.57l0 -5483.42z"/>
  <path class="fil0" d="M28706.97 6871.95c0,-47.08 15.73,-86.39 47.07,-125.7 31.47,-31.34 78.63,-47.07 133.55,-47.07l785.64 0c47.16,0 86.39,15.73 117.83,47.07 39.3,31.46 55.03,70.77 55.03,125.7l0 4587.95 2458.87 0c47.19,0 86.39,15.73 125.69,47.07 31.47,31.44 47.2,78.63 47.2,133.55l0 714.87c0,47.16 -15.73,94.35 -47.2,125.7 -31.43,39.31 -70.62,55.04 -125.69,55.04l-3425.22 0c-117.84,0 -172.77,-55.04 -172.77,-172.89l0 -5491.29z"/>
  <path class="fil0" d="M27528.65 7123.34c31.35,15.73 54.93,39.31 78.51,70.76 23.61,23.58 31.45,54.93 31.45,94.24 0,23.61 -7.84,55.04 -23.58,86.39l-377.08 652.06c-47.19,62.89 -94.24,86.39 -141.43,86.39 -15.73,0 -39.31,0 -54.93,-7.76 -23.58,-7.86 -47.19,-15.74 -62.92,-31.44 -165.01,-117.84 -345.63,-204.34 -534.22,-275 -188.47,-62.89 -384.94,-94.24 -597.02,-94.24 -267.12,0 -518.52,47.08 -738.46,149.3 -219.93,102.1 -416.4,235.64 -573.44,408.42 -165,172.88 -290.7,377.09 -384.94,612.75 -86.5,227.93 -133.55,479.32 -133.55,746.3 0,267.12 47.05,510.67 133.55,746.33 94.24,227.9 219.94,432.13 384.94,604.99 157.04,172.78 353.51,306.32 573.44,408.44 219.94,102.12 471.34,149.28 738.46,149.28 212.08,0 408.55,-31.46 604.88,-102.12 188.61,-62.89 369.24,-157.13 534.24,-274.98 15.73,-15.72 39.31,-23.58 62.89,-31.43 23.49,0 39.23,-7.87 54.93,-7.87 47.19,0 94.26,31.46 141.42,86.5l384.98 659.8c15.73,31.46 23.58,55.04 23.58,86.5 0,31.34 -7.85,62.81 -31.47,86.39 -23.58,23.58 -47.16,47.18 -78.5,70.65 -243.54,165 -510.64,290.7 -793.49,384.94 -282.86,86.5 -581.3,133.58 -895.61,133.58 -282.82,0 -549.84,-31.35 -801.23,-109.97 -259.25,-70.66 -495.05,-164.92 -714.98,-298.47 -227.79,-133.55 -432.02,-290.7 -612.73,-471.44 -180.65,-180.63 -337.78,-384.97 -471.36,-604.9 -125.69,-219.94 -227.78,-463.45 -298.55,-714.85 -70.65,-259.24 -109.97,-518.51 -109.97,-801.37 0,-274.86 39.32,-541.98 109.97,-801.23 70.77,-251.39 172.86,-494.9 298.55,-714.86 133.58,-227.91 290.71,-432.11 471.36,-612.84 180.71,-180.63 384.94,-337.79 612.73,-471.36 219.93,-125.67 455.73,-227.78 714.98,-298.44 251.39,-70.78 518.41,-110.08 801.23,-110.08 306.43,0 604.9,47.16 887.73,133.54 275,86.5 542.1,212.2 785.64,377.1z"/>
  <path class="fil0" d="M21966.7 7123.34c31.34,15.73 54.92,39.31 78.5,70.76 23.61,23.58 31.46,54.93 31.46,94.24 0,23.61 -7.85,55.04 -23.58,86.39l-377.09 652.06c-47.19,62.89 -94.24,86.39 -141.42,86.39 -15.74,0 -39.32,0 -54.94,-7.76 -23.58,-7.86 -47.18,-15.74 -62.88,-31.44 -165.04,-117.84 -345.63,-204.34 -534.25,-275 -188.51,-62.89 -384.95,-94.24 -597.02,-94.24 -267.13,0 -518.52,47.08 -738.45,149.3 -219.94,102.1 -416.4,235.64 -573.45,408.42 -165.01,172.88 -290.71,377.09 -384.94,612.75 -86.5,227.93 -133.55,479.32 -133.55,746.3 0,267.12 47.05,510.67 133.55,746.33 94.23,227.9 219.93,432.13 384.94,604.99 157.05,172.78 353.51,306.32 573.45,408.44 219.93,102.12 471.32,149.28 738.45,149.28 212.07,0 408.51,-31.46 604.9,-102.12 188.59,-62.89 369.21,-157.13 534.22,-274.98 15.73,-15.72 39.31,-23.58 62.89,-31.43 23.5,0 39.22,-7.87 54.92,-7.87 47.19,0 94.27,31.46 141.43,86.5l384.97 659.8c15.73,31.46 23.58,55.04 23.58,86.5 0,31.34 -7.85,62.81 -31.46,86.39 -23.58,23.58 -47.16,47.18 -78.51,70.65 -243.54,165 -510.64,290.7 -793.49,384.94 -282.85,86.5 -581.3,133.58 -895.6,133.58 -282.83,0 -549.84,-31.35 -801.24,-109.97 -259.24,-70.66 -495.01,-164.92 -714.98,-298.47 -227.78,-133.55 -432.01,-290.7 -612.76,-471.44 -180.62,-180.63 -337.75,-384.97 -471.32,-604.9 -125.7,-219.94 -227.78,-463.45 -298.56,-714.85 -70.65,-259.24 -109.96,-518.51 -109.96,-801.37 0,-274.86 39.31,-541.98 109.96,-801.23 70.78,-251.39 172.86,-494.9 298.56,-714.86 133.57,-227.91 290.7,-432.11 471.32,-612.84 180.75,-180.63 384.98,-337.79 612.76,-471.36 219.97,-125.67 455.74,-227.78 714.98,-298.44 251.4,-70.78 518.41,-110.08 801.24,-110.08 306.43,0 604.9,47.16 887.75,133.54 274.97,86.5 542.1,212.2 785.62,377.1z"/>
  <path class="fil0" d="M9695.69 6871.95c0,-47.08 15.73,-86.39 47.05,-125.7 23.61,-31.34 70.77,-47.07 125.72,-47.07l785.62 0c39.31,0 86.38,15.73 125.7,47.07 39.31,31.46 55.03,70.77 55.03,125.7l0 5491.29c0,117.85 -62.88,172.89 -180.73,172.89l-785.62 0c-117.84,0 -172.77,-55.04 -172.77,-172.89l0 -5491.29z"/>
  <path class="fil0" d="M8517.37 7123.34c31.34,15.73 54.92,39.31 78.5,70.76 23.61,23.58 31.46,54.93 31.46,94.24 0,23.61 -7.85,55.04 -23.58,86.39l-377.09 652.06c-47.19,62.89 -94.24,86.39 -141.43,86.39 -15.73,0 -39.31,0 -54.93,-7.76 -23.58,-7.86 -47.16,-15.74 -62.88,-31.44 -165.04,-117.84 -345.63,-204.34 -534.25,-275 -188.48,-62.89 -384.94,-94.24 -597.02,-94.24 -267.13,0 -518.52,47.08 -738.46,149.3 -219.93,102.1 -416.4,235.64 -573.44,408.42 -165.01,172.88 -290.71,377.09 -384.94,612.75 -86.5,227.93 -133.55,479.32 -133.55,746.3 0,267.12 47.05,510.67 133.55,746.33 94.23,227.9 219.93,432.13 384.94,604.99 157.04,172.78 353.51,306.32 573.44,408.44 219.94,102.12 471.33,149.28 738.46,149.28 212.08,0 408.54,-31.46 604.87,-102.12 188.61,-62.89 369.24,-157.13 534.25,-274.98 15.73,-15.72 39.31,-23.58 62.89,-31.43 23.49,0 39.23,-7.87 54.92,-7.87 47.19,0 94.27,31.46 141.46,86.5l384.94 659.8c15.73,31.46 23.58,55.04 23.58,86.5 0,31.34 -7.85,62.81 -31.46,86.39 -23.58,23.58 -47.16,47.18 -78.51,70.65 -243.54,165 -510.64,290.7 -793.49,384.94 -282.85,86.5 -581.29,133.58 -895.61,133.58 -282.82,0 -549.83,-31.35 -801.23,-109.97 -259.24,-70.66 -495.01,-164.92 -714.98,-298.47 -227.79,-133.55 -432.01,-290.7 -612.75,-471.44 -180.63,-180.63 -337.76,-384.97 -471.33,-604.9 -125.7,-219.94 -227.78,-463.45 -298.56,-714.85 -70.65,-259.24 -109.97,-518.51 -109.97,-801.37 0,-274.86 39.32,-541.98 109.97,-801.23 70.78,-251.39 172.86,-494.9 298.56,-714.86 133.57,-227.91 290.7,-432.11 471.33,-612.84 180.74,-180.63 384.96,-337.79 612.75,-471.36 219.97,-125.67 455.74,-227.78 714.98,-298.44 251.4,-70.78 518.41,-110.08 801.23,-110.08 306.44,0 604.91,47.16 887.76,133.54 274.97,86.5 542.1,212.2 785.62,377.1z"/>
  <path class="fil0" d="M38625.51 7096.85c0,0 -286.58,279.26 -491.68,482.4 -173.22,-179.73 -392.15,-361.13 -665.93,-514.06 -176.62,-98.67 -703.45,-368.38 -1433.39,-366.01 -310.63,1 -798.47,51.64 -1317.13,314.92 -240.01,121.83 -928.79,513.56 -1319.47,1356.67 -199.39,430.35 -251.92,828.9 -261.8,1101.34 -2.7,74.87 57.71,136.84 132.6,136.84l787.06 0c69.35,0 126.86,-53.35 132.23,-122.47 14.18,-183.16 60.98,-440.18 202.91,-711.17 259.1,-494.68 668.43,-717.41 802.67,-788.04 404.27,-212.75 768.88,-223.8 840.93,-225.05 102.87,-1.81 721.38,-3.06 1231.13,455.32 41.13,37 78.34,74.19 112.2,110.83 -206.43,205.01 -409.11,408.13 -409.11,408.13 -188.89,226.81 23.39,357.63 131.32,354.21l1262.96 -0.28c66.7,0 121.15,0.28 121.15,0.28 0.03,-0.04 55.13,0 121.92,0l244.96 -0.04c66.9,0 121.16,-54.39 121.38,-121.32l0 -1736.82c7.85,-158.88 -166.76,-312.91 -346.91,-135.68z"/>
  <path class="fil0" d="M38836.78 9579.05l-801.01 4.62c-68.93,0.42 -124.97,54.99 -127.98,123.84 -10.27,237.49 -71.97,661.55 -372.47,1059.89 -386.8,512.75 -1000.04,758.41 -1561.82,740.54 -468.73,-14.93 -806.46,-210.34 -915.34,-278.49 -156.12,-97.71 -279.6,-207.82 -375.59,-312.11 218.18,-216.62 445.47,-444.43 445.47,-444.43 189.14,-226.79 -23.11,-357.61 -131.07,-354.1l-1263.04 0.31c-66.59,0 -121.1,-0.31 -121.1,-0.31 0,-0.02 -55.02,0 -121.77,0l-245.58 -0.02c-66.7,0 -121.07,54.42 -121.16,121.29l0 1736.76c-7.68,158.72 166.54,312.67 346.89,135.52 0,0 270.96,-264.22 474.7,-465.42 134.37,143.85 308.4,300.11 528.65,441.93 144.96,93.37 701.28,432.46 1498.94,446.91 887.29,16.07 1516.05,-379.62 1720.59,-520.82 657.66,-453.99 946.52,-1049.98 1054.88,-1314.99 156.9,-383.67 205.29,-733.47 217.29,-986.2 3.48,-73.72 -55.68,-135.13 -129.48,-134.72z"/>
 </g>
</svg>
