<?xml version="1.0" encoding="UTF-8"?>
<!DOCTYPE svg PUBLIC "-//W3C//DTD SVG 1.1//EN" "http://www.w3.org/Graphics/SVG/1.1/DTD/svg11.dtd">
<!-- Creator: CorelDRAW 2019 (64-Bit) -->
<svg xmlns="http://www.w3.org/2000/svg" xml:space="preserve" width="475mm" height="325mm" version="1.1" style="shape-rendering:geometricPrecision; text-rendering:geometricPrecision; image-rendering:optimizeQuality; fill-rule:evenodd; clip-rule:evenodd"
viewBox="0 0 47500 32500"
 xmlns:xlink="http://www.w3.org/1999/xlink">
 <defs>
  <style type="text/css">
   <![CDATA[
    .fil0 {fill:#373435}
    .fil1 {fill:#038910}
   ]]>
  </style>
 </defs>
 <g id="Capa_x0020_1">
  <metadata id="CorelCorpID_0Corel-Layer"/>
  <path class="fil0" d="M76045.76 14110.07l-8291.79 -28.41 0 12740.21 8814.92 -7c9735.8,-7.56 7523.67,-13337.66 -523.13,-12704.8zm-16254.85 -5630.06c0,-823.78 383.95,-1262.62 1208.51,-1262.62l16803.69 0c1867.29,0 3624.47,329.28 5217.15,1043.5 1592.12,714.01 3034.37,1633.34 4228.31,2800.03 1222.13,1194.55 2118.73,2645.95 2800.85,4229.3 690.45,1602.61 1043.67,3349.64 1043.67,5162.04 0,1262.63 -139.51,2478.58 -493.89,3623.65 -359.68,1161.67 -879.06,2197.01 -1483.34,3185.63 -604.06,988.4 -1345.54,1895.31 -2196.41,2691.07 -852.58,797.53 -1812.18,1482.52 -2855.69,2031.36l7139.11 14058.49c102.78,202.02 109.95,384.73 219.89,549.78 54.89,218.95 109.17,383.95 109.17,603.67 0,549.01 -329.06,823.79 -932.73,823.79l-6425.49 0c-658.73,0 -982.39,-376.56 -1318.51,-1043.51l-6644.39 -13180.04c-329.88,0 -605.05,-29.57 -988.61,0 -332.59,25.7 -768.73,55.11 -1372.63,55.11l-6095.6 0 0 12959.93c0,823.78 -439.78,1208.51 -1263.56,1208.51l-5490.99 0c-384.72,0 -672.36,-94.39 -878.67,-274.78 -233.52,-204.33 -329.84,-493.95 -329.84,-933.73l0 -38331.18z"/>
  <path class="fil0" d="M175827.63 8425.01c0,-329.12 109.95,-603.9 329.07,-878.67 219.94,-219.12 549.61,-329.07 933.56,-329.07l5491.93 0c329.66,0 603.89,109.95 823.61,329.07 274.78,219.88 384.73,494.72 384.73,878.67l0 32071.52 17188.41 0c329.89,0 603.89,109.94 878.67,329.06 219.95,219.72 329.89,549.61 329.89,933.56l0 4997.21c0,329.66 -109.94,659.55 -329.89,878.67 -219.72,274.78 -493.73,384.72 -878.67,384.72l-23943.57 0c-823.78,0 -1207.74,-384.72 -1207.74,-1208.5l0 -38386.24z"/>
  <path class="fil0" d="M167590.73 10182.3c219.12,109.94 383.96,274.78 548.79,494.67 165.05,164.83 219.89,384 219.89,658.78 0,165 -54.84,384.73 -164.84,603.9l-2635.96 4558.14c-329.89,439.61 -658.78,603.9 -988.62,603.9 -110,0 -274.83,0 -384,-54.29 -164.84,-54.89 -329.84,-110 -439.84,-219.72 -1153.45,-823.78 -2416.07,-1428.45 -3734.36,-1922.4 -1317.51,-439.61 -2690.91,-658.73 -4173.42,-658.73 -1867.29,0 -3624.64,329.06 -5162.09,1043.67 -1537.41,713.68 -2910.8,1647.18 -4008.59,2854.97 -1153.45,1208.51 -2032.13,2636.02 -2690.86,4283.37 -604.66,1593.29 -933.56,3350.63 -933.56,5216.93 0,1867.29 328.9,3569.75 933.56,5217.15 658.73,1593.06 1537.41,3020.74 2690.86,4229.08 1097.79,1207.79 2471.18,2141.3 4008.59,2855.14 1537.45,713.84 3294.8,1043.51 5162.09,1043.51 1482.51,0 2855.91,-219.89 4228.31,-713.84 1318.45,-439.61 2581.13,-1098.4 3734.58,-1922.18 109.95,-109.95 274.78,-164.84 439.62,-219.73 164.22,0 274.22,-55.05 383.95,-55.05 329.89,0 658.95,219.94 988.61,604.67l2691.13 4612.26c109.95,219.94 164.84,384.78 164.84,604.67 0,219.11 -54.89,439.06 -219.95,603.89 -164.83,164.83 -329.66,329.83 -548.78,493.9 -1702.46,1153.45 -3569.58,2032.12 -5546.82,2690.9 -1977.23,604.67 -4063.48,933.73 -6260.6,933.73 -1977.07,0 -3843.59,-219.11 -5600.94,-768.73 -1812.23,-493.89 -3460.57,-1152.84 -4997.97,-2086.4 -1592.35,-933.57 -3019.97,-2032.13 -4283.2,-3295.53 -1262.85,-1262.67 -2361.25,-2691.07 -3294.97,-4228.53 -878.68,-1537.4 -1592.3,-3239.69 -2087.02,-4997.04 -493.89,-1812.18 -768.73,-3624.58 -768.73,-5601.87 0,-1921.35 274.84,-3788.64 768.73,-5600.88 494.72,-1757.35 1208.34,-3459.58 2087.02,-4997.21 933.72,-1593.12 2032.12,-3020.57 3294.97,-4283.97 1263.23,-1262.68 2690.85,-2361.24 4283.2,-3294.97 1537.4,-878.51 3185.74,-1592.29 4997.97,-2086.24 1757.35,-494.72 3623.87,-769.5 5600.94,-769.5 2142.07,0 4228.48,329.67 6205.55,933.56 1922.34,604.67 3789.47,1483.34 5491.92,2636.02z"/>
  <path class="fil0" d="M128710.55 10182.3c219.11,109.94 383.95,274.78 548.78,494.67 165.06,164.83 219.95,384 219.95,658.78 0,165 -54.89,384.73 -164.89,603.9l-2635.97 4558.14c-329.89,439.61 -658.78,603.9 -988.62,603.9 -109.99,0 -274.83,0 -384,-54.29 -164.83,-54.89 -329.83,-110 -439.61,-219.72 -1153.68,-823.78 -2416.08,-1428.45 -3734.59,-1922.4 -1317.73,-439.61 -2690.9,-658.73 -4173.42,-658.73 -1867.29,0 -3624.63,329.06 -5162.04,1043.67 -1537.45,713.68 -2910.8,1647.18 -4008.64,2854.97 -1153.45,1208.51 -2032.13,2636.02 -2690.85,4283.37 -604.67,1593.29 -933.57,3350.63 -933.57,5216.93 0,1867.29 328.9,3569.75 933.57,5217.15 658.72,1593.06 1537.4,3020.74 2690.85,4229.08 1097.84,1207.79 2471.19,2141.3 4008.64,2855.14 1537.41,713.84 3294.75,1043.51 5162.04,1043.51 1482.52,0 2855.69,-219.89 4228.48,-713.84 1318.34,-439.61 2580.96,-1098.4 3734.42,-1922.18 109.94,-109.95 274.77,-164.84 439.61,-219.73 164.28,0 274.23,-55.05 383.95,-55.05 329.89,0 659,219.94 988.67,604.67l2691.08 4612.26c109.94,219.94 164.83,384.78 164.83,604.67 0,219.11 -54.89,439.06 -219.94,603.89 -164.84,164.83 -329.67,329.83 -548.79,493.9 -1702.45,1153.45 -3569.58,2032.12 -5546.82,2690.9 -1977.23,604.67 -4063.47,933.73 -6260.6,933.73 -1977.07,0 -3843.59,-219.11 -5600.93,-768.73 -1812.18,-493.89 -3460.36,-1152.84 -4997.98,-2086.4 -1592.29,-933.57 -3019.97,-2032.13 -4283.42,-3295.53 -1262.63,-1262.67 -2361.02,-2691.07 -3294.75,-4228.53 -878.67,-1537.4 -1592.29,-3239.69 -2087.02,-4997.04 -493.89,-1812.18 -768.67,-3624.58 -768.67,-5601.87 0,-1921.35 274.78,-3788.64 768.67,-5600.88 494.73,-1757.35 1208.35,-3459.58 2087.02,-4997.21 933.73,-1593.12 2032.12,-3020.57 3294.75,-4283.97 1263.45,-1262.68 2691.13,-2361.24 4283.42,-3294.97 1537.62,-878.51 3185.8,-1592.29 4997.98,-2086.24 1757.34,-494.72 3623.86,-769.5 5600.93,-769.5 2142.07,0 4228.48,329.67 6205.71,933.56 1922.19,604.67 3789.48,1483.34 5491.77,2636.02z"/>
  <path class="fil0" d="M42931.56 8425.01c0,-329.12 109.95,-603.9 328.9,-878.67 165,-219.12 494.67,-329.07 878.84,-329.07l5491.76 0c274.78,0 603.84,109.95 878.67,329.07 274.78,219.88 384.73,494.72 384.73,878.67l0 38386.24c0,823.78 -439.62,1208.5 -1263.4,1208.5l-5491.76 0c-823.79,0 -1207.74,-384.72 -1207.74,-1208.5l0 -38386.24z"/>
  <path class="fil0" d="M34694.61 10182.3c219.11,109.94 383.95,274.78 548.78,494.67 165.06,164.83 219.89,384 219.89,658.78 0,165 -54.83,384.73 -164.83,603.9l-2635.97 4558.14c-329.89,439.61 -658.78,603.9 -988.67,603.9 -109.94,0 -274.78,0 -383.95,-54.29 -164.83,-54.89 -329.67,-110 -439.61,-219.72 -1153.68,-823.78 -2416.08,-1428.45 -3734.58,-1922.4 -1317.52,-439.61 -2690.91,-658.73 -4173.43,-658.73 -1867.29,0 -3624.63,329.06 -5162.09,1043.67 -1537.4,713.68 -2910.8,1647.18 -4008.59,2854.97 -1153.45,1208.51 -2032.12,2636.02 -2690.85,4283.37 -604.67,1593.29 -933.57,3350.63 -933.57,5216.93 0,1867.29 328.9,3569.75 933.57,5217.15 658.73,1593.06 1537.4,3020.74 2690.85,4229.08 1097.79,1207.79 2471.19,2141.3 4008.59,2855.14 1537.46,713.84 3294.8,1043.51 5162.09,1043.51 1482.52,0 2855.91,-219.89 4228.31,-713.84 1318.46,-439.61 2581.13,-1098.4 3734.59,-1922.18 109.94,-109.95 274.77,-164.84 439.61,-219.73 164.23,0 274.23,-55.05 383.95,-55.05 329.89,0 658.95,219.94 988.84,604.67l2690.91 4612.26c109.94,219.94 164.83,384.78 164.83,604.67 0,219.11 -54.89,439.06 -219.94,603.89 -164.84,164.83 -329.67,329.83 -548.79,493.9 -1702.45,1153.45 -3569.58,2032.12 -5546.82,2690.9 -1977.23,604.67 -4063.47,933.73 -6260.65,933.73 -1977.02,0 -3843.54,-219.11 -5600.88,-768.73 -1812.24,-493.89 -3460.36,-1152.84 -4997.98,-2086.4 -1592.35,-933.57 -3019.97,-2032.13 -4283.42,-3295.53 -1262.63,-1262.67 -2361.02,-2691.07 -3294.75,-4228.53 -878.67,-1537.4 -1592.29,-3239.69 -2087.02,-4997.04 -493.89,-1812.18 -768.72,-3624.58 -768.72,-5601.87 0,-1921.35 274.83,-3788.64 768.72,-5600.88 494.73,-1757.35 1208.35,-3459.58 2087.02,-4997.21 933.73,-1593.12 2032.12,-3020.57 3294.75,-4283.97 1263.45,-1262.68 2691.07,-2361.24 4283.42,-3294.97 1537.62,-878.51 3185.74,-1592.29 4997.98,-2086.24 1757.34,-494.72 3623.86,-769.5 5600.88,-769.5 2142.12,0 4228.53,329.67 6205.76,933.56 1922.19,604.67 3789.48,1483.34 5491.77,2636.02z"/>
  <path class="fil1" d="M245162 9997.11c0,0 -2003.33,1952.14 -3437.02,3372.2 -1210.88,-1256.39 -2741.27,-2524.47 -4655.12,-3593.47 -1234.6,-689.73 -4917.38,-2575.11 -10019.9,-2558.57 -2171.47,7.01 -5581.63,361.01 -9207.26,2201.43 -1677.74,851.64 -6492.63,3590 -9223.59,9483.64 -1393.8,3008.27 -1761.04,5794.34 -1830.1,7698.76 -18.87,523.35 403.42,956.57 926.94,956.57l5501.8 0c484.79,0 886.84,-372.92 924.41,-856.11 99.07,-1280.34 426.2,-3077.02 1418.35,-4971.34 1811.25,-3458.04 4672.62,-5014.97 5611.03,-5508.7 2825.96,-1487.2 5374.76,-1564.43 5878.42,-1573.2 719.08,-12.63 5042.72,-21.4 8606.06,3182.87 287.47,258.62 547.63,518.61 784.29,774.74 -1443.01,1433.09 -2859.83,2852.99 -2859.83,2852.99 -1320.43,1585.51 163.51,2499.98 918.01,2476.04l8828.55 -1.93c466.26,0 846.9,1.93 846.9,1.93 0.22,-0.22 385.33,0 852.25,0l1712.33 -0.22c467.69,0 846.95,-380.26 848.55,-848.11l0 -12141.01c54.83,-1110.64 -1165.75,-2187.41 -2425.07,-948.51z"/>
  <path class="fil1" d="M246638.83 27348.7l-5599.33 32.27c-481.87,2.93 -873.6,384.39 -894.62,865.66 -71.82,1660.2 -503.11,4624.51 -2603.69,7409.03 -2703.93,3584.37 -6990.66,5301.61 -10917.71,5176.66 -3276.66,-104.32 -5637.46,-1470.32 -6398.63,-1946.73 -1091.34,-683.06 -1954.45,-1452.72 -2625.48,-2181.73 1525.15,-1514.29 3113.97,-3106.8 3113.97,-3106.8 1322.2,-1585.29 -161.52,-2499.77 -916.24,-2475.27l-8829.1 2.15c-465.49,0 -846.57,-2.15 -846.57,-2.15 0,-0.17 -384.56,0 -851.2,0l-1716.69 -0.17c-466.26,0 -846.34,380.48 -846.95,847.89l0 12140.62c-53.68,1109.49 1164.21,2185.71 2424.9,947.36 0,0 1894.1,-1847.05 3318.3,-3253.49 939.36,1005.55 2155.87,2097.88 3695.47,3089.26 1013.34,652.71 4902.22,3023.06 10478.22,3124.07 6202.45,112.31 10597.75,-2653.68 12027.58,-3640.75 4597.26,-3173.55 6616.53,-7339.75 7374,-9192.25 1096.8,-2681.98 1435.02,-5127.23 1518.93,-6893.9 24.32,-515.36 -389.25,-944.65 -905.16,-941.73z"/>
 </g>
</svg>
