<?xml version="1.0" encoding="UTF-8"?>
<svg xmlns="http://www.w3.org/2000/svg" xmlns:xlink="http://www.w3.org/1999/xlink" width="1834pt" height="1256pt" viewBox="0 0 1834 1256" version="1.1">
<g id="surface1">
<path style=" stroke:none;fill-rule:evenodd;fill:rgb(21.568627%,20.392157%,20.784314%);fill-opacity:1;" d="M 557.28125 296.894531 L 511.480469 296.738281 L 511.480469 367.144531 L 560.171875 367.105469 C 613.949219 367.066406 601.730469 293.398438 557.28125 296.894531 Z M 467.496094 265.78125 C 467.496094 261.226562 469.617188 258.804688 474.171875 258.804688 L 566.988281 258.804688 C 577.300781 258.804688 587.007812 260.621094 595.804688 264.570312 C 604.601562 268.515625 612.566406 273.597656 619.160156 280.042969 C 625.914062 286.644531 630.863281 294.667969 634.632812 303.417969 C 638.445312 312.273438 640.398438 321.929688 640.398438 331.945312 C 640.398438 338.921875 639.625 345.640625 637.667969 351.96875 C 635.683594 358.390625 632.8125 364.113281 629.476562 369.574219 C 626.140625 375.039062 622.042969 380.050781 617.34375 384.445312 C 612.632812 388.855469 607.332031 392.640625 601.570312 395.671875 L 641.003906 473.367188 C 641.570312 474.484375 641.609375 475.492188 642.21875 476.40625 C 642.519531 477.617188 642.820312 478.527344 642.820312 479.742188 C 642.820312 482.773438 641.003906 484.292969 637.667969 484.292969 L 602.175781 484.292969 C 598.539062 484.292969 596.75 482.214844 594.894531 478.527344 L 558.191406 405.6875 C 556.371094 405.6875 554.851562 405.523438 552.734375 405.6875 C 550.894531 405.832031 548.488281 405.992188 545.152344 405.992188 L 511.480469 405.992188 L 511.480469 477.617188 C 511.480469 482.167969 509.050781 484.292969 504.5 484.292969 L 474.171875 484.292969 C 472.046875 484.292969 470.457031 483.773438 469.316406 482.773438 C 468.027344 481.644531 467.496094 480.046875 467.496094 477.617188 Z M 467.496094 265.78125 "/>
<path style=" stroke:none;fill-rule:evenodd;fill:rgb(21.568627%,20.392157%,20.784314%);fill-opacity:1;" d="M 1108.4375 265.476562 C 1108.4375 263.65625 1109.046875 262.140625 1110.253906 260.621094 C 1111.46875 259.410156 1113.292969 258.800781 1115.410156 258.800781 L 1145.746094 258.800781 C 1147.566406 258.800781 1149.082031 259.410156 1150.296875 260.621094 C 1151.8125 261.835938 1152.421875 263.355469 1152.421875 265.476562 L 1152.421875 442.71875 L 1247.363281 442.71875 C 1249.1875 442.71875 1250.699219 443.324219 1252.21875 444.535156 C 1253.433594 445.75 1254.039062 447.574219 1254.039062 449.695312 L 1254.039062 477.3125 C 1254.039062 479.132812 1253.433594 480.957031 1252.21875 482.167969 C 1251.003906 483.6875 1249.492188 484.292969 1247.363281 484.292969 L 1115.109375 484.292969 C 1110.558594 484.292969 1108.4375 482.167969 1108.4375 477.617188 Z M 1108.4375 265.476562 "/>
<path style=" stroke:none;fill-rule:evenodd;fill:rgb(21.568627%,20.392157%,20.784314%);fill-opacity:1;" d="M 1062.941406 275.1875 C 1064.152344 275.796875 1065.0625 276.707031 1065.972656 277.921875 C 1066.882812 278.832031 1067.1875 280.042969 1067.1875 281.5625 C 1067.1875 282.472656 1066.882812 283.6875 1066.277344 284.898438 L 1051.714844 310.089844 C 1049.894531 312.519531 1048.078125 313.425781 1046.253906 313.425781 C 1045.648438 313.425781 1044.738281 313.425781 1044.132812 313.128906 C 1043.222656 312.824219 1042.3125 312.519531 1041.703125 311.914062 C 1035.332031 307.359375 1028.359375 304.019531 1021.078125 301.289062 C 1013.800781 298.859375 1006.214844 297.648438 998.023438 297.648438 C 987.710938 297.648438 978.003906 299.46875 969.511719 303.417969 C 961.019531 307.359375 953.433594 312.519531 947.371094 319.195312 C 941 325.875 936.144531 333.761719 932.507812 342.867188 C 929.167969 351.671875 927.347656 361.382812 927.347656 371.695312 C 927.347656 382.015625 929.167969 391.425781 932.507812 400.527344 C 936.144531 409.332031 941 417.222656 947.371094 423.902344 C 953.433594 430.574219 961.019531 435.734375 969.511719 439.679688 C 978.003906 443.625 987.710938 445.445312 998.023438 445.445312 C 1006.214844 445.445312 1013.800781 444.230469 1021.378906 441.5 C 1028.664062 439.074219 1035.636719 435.429688 1042.007812 430.878906 C 1042.617188 430.273438 1043.527344 429.96875 1044.4375 429.664062 C 1045.34375 429.664062 1045.953125 429.359375 1046.558594 429.359375 C 1048.378906 429.359375 1050.199219 430.574219 1052.019531 432.703125 L 1066.882812 458.191406 C 1067.492188 459.40625 1067.792969 460.316406 1067.792969 461.535156 C 1067.792969 462.742188 1067.492188 463.960938 1066.578125 464.871094 C 1065.667969 465.78125 1064.757812 466.691406 1063.546875 467.601562 C 1054.144531 473.972656 1043.832031 478.832031 1032.910156 482.472656 C 1021.988281 485.8125 1010.464844 487.632812 998.328125 487.632812 C 987.40625 487.632812 977.097656 486.421875 967.390625 483.382812 C 957.378906 480.652344 948.277344 477.011719 939.785156 471.851562 C 930.988281 466.691406 923.101562 460.621094 916.125 453.640625 C 909.148438 446.660156 903.082031 438.769531 897.925781 430.273438 C 893.070312 421.773438 889.128906 412.367188 886.398438 402.65625 C 883.667969 392.640625 882.152344 382.625 882.152344 371.695312 C 882.152344 361.078125 883.667969 350.757812 886.398438 340.742188 C 889.128906 331.03125 893.070312 321.625 897.925781 313.128906 C 903.082031 304.324219 909.148438 296.433594 916.125 289.453125 C 923.101562 282.472656 930.988281 276.402344 939.785156 271.242188 C 948.277344 266.386719 957.378906 262.445312 967.390625 259.714844 C 977.097656 256.980469 987.40625 255.460938 998.328125 255.460938 C 1010.160156 255.460938 1021.683594 257.28125 1032.605469 260.621094 C 1043.222656 263.960938 1053.535156 268.816406 1062.941406 275.1875 Z M 1062.941406 275.1875 "/>
<path style=" stroke:none;fill-rule:evenodd;fill:rgb(21.568627%,20.392157%,20.784314%);fill-opacity:1;" d="M 848.179688 275.1875 C 849.390625 275.796875 850.300781 276.707031 851.210938 277.921875 C 852.125 278.832031 852.425781 280.042969 852.425781 281.5625 C 852.425781 282.472656 852.125 283.6875 851.515625 284.898438 L 836.957031 310.089844 C 835.132812 312.519531 833.316406 313.425781 831.496094 313.425781 C 830.886719 313.425781 829.976562 313.425781 829.375 313.128906 C 828.464844 312.824219 827.554688 312.519531 826.945312 311.914062 C 820.574219 307.359375 813.601562 304.019531 806.316406 301.289062 C 799.039062 298.859375 791.453125 297.648438 783.265625 297.648438 C 772.953125 297.648438 763.246094 299.46875 754.753906 303.417969 C 746.261719 307.359375 738.675781 312.519531 732.609375 319.195312 C 726.238281 325.875 721.386719 333.761719 717.746094 342.867188 C 714.40625 351.671875 712.589844 361.382812 712.589844 371.695312 C 712.589844 382.015625 714.40625 391.425781 717.746094 400.527344 C 721.386719 409.332031 726.238281 417.222656 732.609375 423.902344 C 738.675781 430.574219 746.261719 435.734375 754.753906 439.679688 C 763.246094 443.625 772.953125 445.445312 783.265625 445.445312 C 791.453125 445.445312 799.039062 444.230469 806.621094 441.5 C 813.90625 439.074219 820.878906 435.429688 827.25 430.878906 C 827.855469 430.273438 828.769531 429.96875 829.679688 429.664062 C 830.585938 429.664062 831.191406 429.359375 831.796875 429.359375 C 833.621094 429.359375 835.4375 430.574219 837.257812 432.703125 L 852.125 458.191406 C 852.730469 459.40625 853.035156 460.316406 853.035156 461.535156 C 853.035156 462.742188 852.730469 463.960938 851.820312 464.871094 C 850.910156 465.78125 850 466.691406 848.789062 467.601562 C 839.386719 473.972656 829.070312 478.832031 818.148438 482.472656 C 807.230469 485.8125 795.703125 487.632812 783.570312 487.632812 C 772.648438 487.632812 762.339844 486.421875 752.632812 483.382812 C 742.621094 480.652344 733.519531 477.011719 725.023438 471.851562 C 716.230469 466.691406 708.34375 460.621094 701.363281 453.640625 C 694.390625 446.660156 688.324219 438.769531 683.164062 430.273438 C 678.3125 421.773438 674.371094 412.367188 671.636719 402.65625 C 668.910156 392.640625 667.390625 382.625 667.390625 371.695312 C 667.390625 361.078125 668.910156 350.757812 671.636719 340.742188 C 674.371094 331.03125 678.3125 321.625 683.164062 313.128906 C 688.324219 304.324219 694.390625 296.433594 701.363281 289.453125 C 708.34375 282.472656 716.230469 276.402344 725.023438 271.242188 C 733.519531 266.386719 742.621094 262.445312 752.632812 259.714844 C 762.339844 256.980469 772.648438 255.460938 783.570312 255.460938 C 795.402344 255.460938 806.925781 257.28125 817.847656 260.621094 C 828.464844 263.960938 838.777344 268.816406 848.179688 275.1875 Z M 848.179688 275.1875 "/>
<path style=" stroke:none;fill-rule:evenodd;fill:rgb(21.568627%,20.392157%,20.784314%);fill-opacity:1;" d="M 374.371094 265.476562 C 374.371094 263.65625 374.980469 262.140625 376.1875 260.621094 C 377.101562 259.410156 378.921875 258.800781 381.042969 258.800781 L 411.378906 258.800781 C 412.894531 258.800781 414.710938 259.410156 416.230469 260.621094 C 417.75 261.835938 418.355469 263.355469 418.355469 265.476562 L 418.355469 477.617188 C 418.355469 482.167969 415.925781 484.292969 411.378906 484.292969 L 381.042969 484.292969 C 376.492188 484.292969 374.371094 482.167969 374.371094 477.617188 Z M 374.371094 265.476562 "/>
<path style=" stroke:none;fill-rule:evenodd;fill:rgb(21.568627%,20.392157%,20.784314%);fill-opacity:1;" d="M 328.875 275.1875 C 330.085938 275.796875 330.996094 276.707031 331.90625 277.921875 C 332.816406 278.832031 333.121094 280.042969 333.121094 281.5625 C 333.121094 282.472656 332.816406 283.6875 332.210938 284.898438 L 317.648438 310.089844 C 315.828125 312.519531 314.011719 313.425781 312.1875 313.425781 C 311.582031 313.425781 310.671875 313.425781 310.066406 313.128906 C 309.15625 312.824219 308.246094 312.519531 307.640625 311.914062 C 301.265625 307.359375 294.292969 304.019531 287.011719 301.289062 C 279.734375 298.859375 272.148438 297.648438 263.957031 297.648438 C 253.644531 297.648438 243.9375 299.46875 235.445312 303.417969 C 226.953125 307.359375 219.367188 312.519531 213.304688 319.195312 C 206.933594 325.875 202.078125 333.761719 198.441406 342.867188 C 195.101562 351.671875 193.28125 361.382812 193.28125 371.695312 C 193.28125 382.015625 195.101562 391.425781 198.441406 400.527344 C 202.078125 409.332031 206.933594 417.222656 213.304688 423.902344 C 219.367188 430.574219 226.953125 435.734375 235.445312 439.679688 C 243.9375 443.625 253.644531 445.445312 263.957031 445.445312 C 272.148438 445.445312 279.734375 444.230469 287.3125 441.5 C 294.597656 439.074219 301.570312 435.429688 307.941406 430.878906 C 308.550781 430.273438 309.460938 429.96875 310.371094 429.664062 C 311.277344 429.664062 311.886719 429.359375 312.492188 429.359375 C 314.3125 429.359375 316.132812 430.574219 317.953125 432.703125 L 332.816406 458.191406 C 333.425781 459.40625 333.726562 460.316406 333.726562 461.535156 C 333.726562 462.742188 333.425781 463.960938 332.511719 464.871094 C 331.601562 465.78125 330.691406 466.691406 329.480469 467.601562 C 320.078125 473.972656 309.765625 478.832031 298.84375 482.472656 C 287.921875 485.8125 276.398438 487.632812 264.261719 487.632812 C 253.339844 487.632812 243.03125 486.421875 233.324219 483.382812 C 223.3125 480.652344 214.210938 477.011719 205.71875 471.851562 C 196.921875 466.691406 189.035156 460.621094 182.058594 453.640625 C 175.082031 446.660156 169.015625 438.769531 163.859375 430.273438 C 159.003906 421.773438 155.0625 412.367188 152.332031 402.65625 C 149.601562 392.640625 148.085938 382.625 148.085938 371.695312 C 148.085938 361.078125 149.601562 350.757812 152.332031 340.742188 C 155.0625 331.03125 159.003906 321.625 163.859375 313.128906 C 169.015625 304.324219 175.082031 296.433594 182.058594 289.453125 C 189.035156 282.472656 196.921875 276.402344 205.71875 271.242188 C 214.210938 266.386719 223.3125 262.445312 233.324219 259.714844 C 243.03125 256.980469 253.339844 255.460938 264.261719 255.460938 C 276.09375 255.460938 287.617188 257.28125 298.539062 260.621094 C 309.15625 263.960938 319.472656 268.816406 328.875 275.1875 Z M 328.875 275.1875 "/>
<path style=" stroke:none;fill-rule:evenodd;fill:rgb(1.176471%,53.72549%,6.27451%);fill-opacity:1;" d="M 1491.414062 274.164062 C 1491.414062 274.164062 1480.347656 284.953125 1472.429688 292.800781 C 1465.742188 285.859375 1457.289062 278.851562 1446.714844 272.941406 C 1439.898438 269.128906 1419.554688 258.710938 1391.371094 258.800781 C 1379.375 258.839844 1360.539062 260.796875 1340.511719 270.96875 C 1331.246094 275.675781 1304.648438 290.808594 1289.566406 323.378906 C 1281.867188 340.003906 1279.839844 355.402344 1279.457031 365.925781 C 1279.351562 368.816406 1281.683594 371.210938 1284.578125 371.210938 L 1314.964844 371.210938 C 1317.644531 371.210938 1319.863281 369.152344 1320.070312 366.480469 C 1320.621094 359.40625 1322.425781 349.476562 1327.90625 339.007812 C 1337.910156 319.894531 1353.714844 311.292969 1358.898438 308.5625 C 1374.507812 300.34375 1388.589844 299.917969 1391.371094 299.871094 C 1395.34375 299.800781 1419.222656 299.75 1438.90625 317.460938 C 1440.496094 318.886719 1441.929688 320.324219 1443.238281 321.742188 C 1435.269531 329.660156 1427.441406 337.507812 1427.441406 337.507812 C 1420.148438 346.269531 1428.34375 351.324219 1432.511719 351.191406 L 1481.277344 351.179688 C 1483.855469 351.179688 1485.957031 351.191406 1485.957031 351.191406 C 1485.957031 351.191406 1488.085938 351.191406 1490.664062 351.191406 L 1500.121094 351.191406 C 1502.707031 351.191406 1504.800781 349.089844 1504.808594 346.503906 L 1504.808594 279.40625 C 1505.113281 273.269531 1498.371094 267.316406 1491.414062 274.164062 Z M 1491.414062 274.164062 "/>
<path style=" stroke:none;fill-rule:evenodd;fill:rgb(1.176471%,53.72549%,6.27451%);fill-opacity:1;" d="M 1499.570312 370.058594 L 1468.644531 370.234375 C 1465.980469 370.25 1463.816406 372.359375 1463.703125 375.019531 C 1463.304688 384.195312 1460.921875 400.578125 1449.320312 415.964844 C 1434.382812 435.773438 1410.707031 445.265625 1389.015625 444.574219 C 1370.914062 443.996094 1357.875 436.449219 1353.671875 433.816406 C 1347.644531 430.039062 1342.875 425.785156 1339.167969 421.757812 C 1347.59375 413.390625 1356.371094 404.589844 1356.371094 404.589844 C 1363.671875 395.828125 1355.476562 390.773438 1351.308594 390.910156 L 1302.539062 390.921875 C 1299.96875 390.921875 1297.863281 390.910156 1297.863281 390.910156 C 1297.863281 390.90625 1295.738281 390.910156 1293.160156 390.910156 L 1283.679688 390.90625 C 1281.105469 390.90625 1279.003906 393.011719 1279 395.59375 L 1279 462.6875 C 1278.703125 468.820312 1285.433594 474.765625 1292.394531 467.921875 C 1292.394531 467.921875 1302.859375 457.714844 1310.726562 449.941406 C 1315.914062 455.5 1322.632812 461.539062 1331.136719 467.015625 C 1336.734375 470.621094 1358.214844 483.722656 1389.015625 484.28125 C 1423.273438 484.902344 1447.550781 469.617188 1455.449219 464.160156 C 1480.84375 446.621094 1491.996094 423.597656 1496.179688 413.359375 C 1502.238281 398.539062 1504.109375 385.023438 1504.570312 375.261719 C 1504.707031 372.414062 1502.421875 370.039062 1499.570312 370.058594 Z M 1499.570312 370.058594 "/>
</g>
</svg>
